<svg width="128" height="128" viewBox="0 0 128 128" fill="none" xmlns="http://www.w3.org/2000/svg">
<rect width="128" height="128" rx="16" fill="#1F1F1F"/>
<path d="M87.3333 50.6667C92.8563 50.6667 97.3333 46.1895 97.3333 40.6667C97.3333 35.1438 92.8563 30.6667 87.3333 30.6667C81.8103 30.6667 77.3333 35.1438 77.3333 40.6667C77.3333 46.1895 81.8103 50.6667 87.3333 50.6667Z" fill="white"/>
<path d="M90 55.4C89.9 55.4333 89.8 55.4333 89.7 55.4667C89.4333 55.5 89.2 55.5333 88.9 55.5667C88.4 55.6333 87.8667 55.6667 87.3333 55.6667C85.9 55.6667 84.5333 55.4667 83.2333 55.0667C82.6667 54.9333 82.1333 54.7667 81.6333 54.5333C81.1333 54.3333 80.6 54.0667 80.1333 53.8C77.6333 52.4333 75.5667 50.3667 74.2 47.8667C73.9333 47.4 73.6667 46.8667 73.4667 46.3667C73.2333 45.8667 73.0667 45.3333 72.9333 44.7667C72.5333 43.4667 72.3333 42.1 72.3333 40.6667C72.3333 40.1333 72.3667 39.6 72.4333 39.1C72.4667 38.8 72.5 38.5667 72.5333 38.3C72.5667 38.2 72.5667 38.1 72.6 38C73 35.9333 71.4667 34 69.3333 34H49.0667C48.6 34 48.1333 34.0333 47.7 34.0667C47.3 34.1 46.9333 34.1333 46.5333 34.2C46.1333 34.2333 45.7333 34.3 45.3667 34.3667C37.3333 35.5333 32.2 40.6333 31.0333 48.7C30.9667 49.0667 30.9 49.4667 30.8667 49.8667C30.8 50.2667 30.7667 50.6333 30.7333 51.0333C30.7 51.4667 30.6667 51.9333 30.6667 52.4V78.9333C30.6667 79.4 30.7 79.8667 30.7333 80.3C30.7667 80.7 30.8 81.0667 30.8667 81.4667C30.9 81.8667 30.9667 82.2667 31.0333 82.6333C32.2 90.7 37.3333 95.8 45.3667 96.9667C45.7333 97.0333 46.1333 97.1 46.5333 97.1333C46.9333 97.2 47.3 97.2333 47.7 97.2667C48.1333 97.3 48.6 97.3333 49.0667 97.3333H75.6C76.0667 97.3333 76.5333 97.3 76.9667 97.2667C77.3667 97.2333 77.7333 97.2 78.1333 97.1333C78.5333 97.1 78.9333 97.0333 79.3 96.9667C87.3333 95.8 92.4667 90.7 93.6333 82.6333C93.7 82.2667 93.7667 81.8667 93.8 81.4667C93.8667 81.0667 93.9 80.7 93.9333 80.3C93.9667 79.8667 94 79.4 94 78.9333V58.6667C94 56.5333 92.0667 55 90 55.4ZM64.9333 74.8333C63.1667 80.4 57.1 83.4 55 83.4C52.8667 83.4 46.9 80.4667 45.1 74.8333H45.0667C43.9 71.1333 45.2333 66.3 49.4667 64.9333C51.4 64.3 53.4667 64.6667 54.9667 65.8333C56.4667 64.6667 58.5667 64.3 60.5333 64.9333C64.7667 66.3 66.1 71.1333 64.9333 74.8333Z" fill="white"/>
</svg>
